<svg xmlns="http://www.w3.org/2000/svg" width="1920" height="90"><path d="M540,228L173,230L794,251Z" fill="#db553e" stroke="#db553e" stroke-width="1.51"/><path d="M173,230L-68,253L794,251Z" fill="#d3543e" stroke="#d3543e" stroke-width="1.51"/><path d="M975,237L794,251L1325,226Z" fill="#f06046" stroke="#f06046" stroke-width="1.51"/><path d="M516,-158L782,-142L1496,-144Z" fill="#a91619" stroke="#a91619" stroke-width="1.51"/><path d="M1089,-114L1234,-105L1496,-144Z" fill="#bd2921" stroke="#bd2921" stroke-width="1.51"/><path d="M782,-142L1089,-114L1496,-144Z" fill="#b61f1d" stroke="#b61f1d" stroke-width="1.51"/><path d="M1325,226L794,251L1781,233Z" fill="#f8694c" stroke="#f8694c" stroke-width="1.51"/><path d="M1548,219L1325,226L1781,233Z" fill="#fb7251" stroke="#fb7251" stroke-width="1.51"/><path d="M516,-158L1496,-144L1923,-157Z" fill="#b22821" stroke="#b22821" stroke-width="1.51"/><path d="M306,-166L516,-158L1923,-157Z" fill="#a31519" stroke="#a31519" stroke-width="1.51"/><path d="M1496,-144L1739,-146L1923,-157Z" fill="#b83e2e" stroke="#b83e2e" stroke-width="1.51"/><path d="M1882,207L1781,233L2009,186Z" fill="#fc7c5b" stroke="#fc7c5b" stroke-width="1.51"/><path d="M2032,-21L1984,159L2095,144Z" fill="#f7694c" stroke="#f7694c" stroke-width="1.51"/><path d="M1984,159L2009,186L2095,144Z" fill="#fb7857" stroke="#fb7857" stroke-width="1.51"/><path d="M2074,-147L2032,-21L2095,144Z" fill="#e35c44" stroke="#e35c44" stroke-width="1.51"/><path d="M1919,121L1984,159L2032,-21Z" fill="#f66549" stroke="#f66549" stroke-width="1.51"/><path d="M1923,-157L2032,-21L2074,-147Z" fill="#c9503c" stroke="#c9503c" stroke-width="1.51"/><path d="M1923,-157L1897,-4L2032,-21Z" fill="#d7523c" stroke="#d7523c" stroke-width="1.51"/><path d="M1897,-4L1919,121L2032,-21Z" fill="#eb5b42" stroke="#eb5b42" stroke-width="1.51"/><path d="M1862,-110L1897,-4L1923,-157Z" fill="#d04e38" stroke="#d04e38" stroke-width="1.51"/><path d="M1984,159L1882,207L2009,186Z" fill="#fc7958" stroke="#fc7958" stroke-width="1.51"/><path d="M1897,-4L1888,2L1919,121Z" fill="#ec5a40" stroke="#ec5a40" stroke-width="1.51"/><path d="M1919,121L1882,207L1984,159Z" fill="#fb7353" stroke="#fb7353" stroke-width="1.51"/><path d="M1888,2L1804,90L1919,121Z" fill="#f35d43" stroke="#f35d43" stroke-width="1.51"/><path d="M1739,-146L1862,-110L1923,-157Z" fill="#bd4533" stroke="#bd4533" stroke-width="1.51"/><path d="M1862,-110L1888,2L1897,-4Z" fill="#dc513a" stroke="#dc513a" stroke-width="1.51"/><path d="M1804,90L1882,207L1919,121Z" fill="#f96b4d" stroke="#f96b4d" stroke-width="1.51"/><path d="M1862,-110L1732,-57L1888,2Z" fill="#d84d37" stroke="#d84d37" stroke-width="1.51"/><path d="M1804,90L1781,233L1882,207Z" fill="#fc7251" stroke="#fc7251" stroke-width="1.51"/><path d="M1732,-57L1804,90L1888,2Z" fill="#e6513a" stroke="#e6513a" stroke-width="1.51"/><path d="M1739,-146L1732,-57L1862,-110Z" fill="#ca4633" stroke="#ca4633" stroke-width="1.51"/><path d="M1703,45L1604,116L1781,233Z" fill="#f86144" stroke="#f86144" stroke-width="1.51"/><path d="M1703,45L1781,233L1804,90Z" fill="#f86245" stroke="#f86245" stroke-width="1.51"/><path d="M1732,-57L1703,45L1804,90Z" fill="#e95039" stroke="#e95039" stroke-width="1.51"/><path d="M1589,161L1548,219L1781,233Z" fill="#fc704f" stroke="#fc704f" stroke-width="1.51"/><path d="M1604,116L1589,161L1781,233Z" fill="#fb6949" stroke="#fb6949" stroke-width="1.51"/><path d="M1649,-73L1703,45L1732,-57Z" fill="#dd4833" stroke="#dd4833" stroke-width="1.51"/><path d="M1649,-73L1732,-57L1739,-146Z" fill="#ce4431" stroke="#ce4431" stroke-width="1.51"/><path d="M1496,-144L1649,-73L1739,-146Z" fill="#c23d2c" stroke="#c23d2c" stroke-width="1.51"/><path d="M1234,-105L1267,-100L1496,-144Z" fill="#c02d23" stroke="#c02d23" stroke-width="1.51"/><path d="M1562,52L1604,116L1703,45Z" fill="#f15038" stroke="#f15038" stroke-width="1.51"/><path d="M1583,-9L1562,52L1703,45Z" fill="#e94a35" stroke="#e94a35" stroke-width="1.51"/><path d="M1649,-73L1583,-9L1703,45Z" fill="#e04632" stroke="#e04632" stroke-width="1.51"/><path d="M1354,211L1325,226L1548,219Z" fill="#f96a4b" stroke="#f96a4b" stroke-width="1.51"/><path d="M1496,-144L1553,-8L1583,-9Z" fill="#d53e2d" stroke="#d53e2d" stroke-width="1.51"/><path d="M1496,-144L1583,-9L1649,-73Z" fill="#d13e2d" stroke="#d13e2d" stroke-width="1.51"/><path d="M1267,-100L1356,-92L1496,-144Z" fill="#c33025" stroke="#c33025" stroke-width="1.51"/><path d="M1562,52L1589,161L1604,116Z" fill="#f6573c" stroke="#f6573c" stroke-width="1.51"/><path d="M1496,-144L1444,-54L1553,-8Z" fill="#d23b2b" stroke="#d23b2b" stroke-width="1.51"/><path d="M1553,-8L1562,52L1583,-9Z" fill="#e44431" stroke="#e44431" stroke-width="1.51"/><path d="M1562,52L1427,58L1589,161Z" fill="#f44e37" stroke="#f44e37" stroke-width="1.51"/><path d="M1427,58L1548,219L1589,161Z" fill="#f85d40" stroke="#f85d40" stroke-width="1.51"/><path d="M1427,58L1354,211L1548,219Z" fill="#f85d40" stroke="#f85d40" stroke-width="1.51"/><path d="M1553,-8L1427,58L1562,52Z" fill="#e84532" stroke="#e84532" stroke-width="1.51"/><path d="M1444,-54L1427,58L1553,-8Z" fill="#e13e2d" stroke="#e13e2d" stroke-width="1.51"/><path d="M1356,-92L1444,-54L1496,-144Z" fill="#c93527" stroke="#c93527" stroke-width="1.51"/><path d="M1278,101L1354,211L1427,58Z" fill="#f44e37" stroke="#f44e37" stroke-width="1.51"/><path d="M1356,-92L1427,58L1444,-54Z" fill="#d9382a" stroke="#d9382a" stroke-width="1.51"/><path d="M1356,-92L1245,32L1427,58Z" fill="#de3529" stroke="#de3529" stroke-width="1.51"/><path d="M1245,32L1278,101L1427,58Z" fill="#ec3f2e" stroke="#ec3f2e" stroke-width="1.51"/><path d="M1111,164L975,237L1129,162Z" fill="#f1543b" stroke="#f1543b" stroke-width="1.51"/><path d="M1129,162L975,237L1325,226Z" fill="#f45c41" stroke="#f45c41" stroke-width="1.51"/><path d="M1278,101L1325,226L1354,211Z" fill="#f75b3f" stroke="#f75b3f" stroke-width="1.51"/><path d="M1267,-100L1245,32L1356,-92Z" fill="#d22f25" stroke="#d22f25" stroke-width="1.51"/><path d="M1212,-14L1245,32L1267,-100Z" fill="#d72d24" stroke="#d72d24" stroke-width="1.51"/><path d="M824,243L794,251L975,237Z" fill="#ea5d44" stroke="#ea5d44" stroke-width="1.51"/><path d="M1278,101L1129,162L1325,226Z" fill="#f5533a" stroke="#f5533a" stroke-width="1.51"/><path d="M1234,-105L1212,-14L1267,-100Z" fill="#cd2b22" stroke="#cd2b22" stroke-width="1.51"/><path d="M1245,32L1164,60L1278,101Z" fill="#ea392b" stroke="#ea392b" stroke-width="1.51"/><path d="M1164,60L1129,162L1278,101Z" fill="#f1412f" stroke="#f1412f" stroke-width="1.51"/><path d="M782,-142L871,-99L1089,-114Z" fill="#b3191b" stroke="#b3191b" stroke-width="1.51"/><path d="M871,-99L966,-85L1089,-114Z" fill="#bc1d1c" stroke="#bc1d1c" stroke-width="1.51"/><path d="M1212,-14L1164,60L1245,32Z" fill="#e23127" stroke="#e23127" stroke-width="1.51"/><path d="M1089,-114L1212,-14L1234,-105Z" fill="#cb2621" stroke="#cb2621" stroke-width="1.51"/><path d="M1078,36L1164,60L1212,-14Z" fill="#e12e26" stroke="#e12e26" stroke-width="1.51"/><path d="M1089,-114L1078,36L1212,-14Z" fill="#d32722" stroke="#d32722" stroke-width="1.51"/><path d="M1111,164L1129,162L1164,60Z" fill="#f04531" stroke="#f04531" stroke-width="1.51"/><path d="M1078,36L1111,164L1164,60Z" fill="#eb382b" stroke="#eb382b" stroke-width="1.51"/><path d="M999,-63L1078,36L1089,-114Z" fill="#cd2420" stroke="#cd2420" stroke-width="1.51"/><path d="M1078,36L1029,85L1111,164Z" fill="#eb392b" stroke="#eb392b" stroke-width="1.51"/><path d="M1029,85L975,237L1111,164Z" fill="#ee4c36" stroke="#ee4c36" stroke-width="1.51"/><path d="M966,-85L999,-63L1089,-114Z" fill="#c3201d" stroke="#c3201d" stroke-width="1.51"/><path d="M516,-158L661,-127L782,-142Z" fill="#a00d16" stroke="#a00d16" stroke-width="1.51"/><path d="M999,-63L1029,85L1078,36Z" fill="#da2923" stroke="#da2923" stroke-width="1.51"/><path d="M966,-85L920,121L999,-63Z" fill="#d22220" stroke="#d22220" stroke-width="1.51"/><path d="M999,-63L920,121L1029,85Z" fill="#de2d25" stroke="#de2d25" stroke-width="1.51"/><path d="M920,121L975,237L1029,85Z" fill="#eb4632" stroke="#eb4632" stroke-width="1.51"/><path d="M802,9L920,121L966,-85Z" fill="#d42320" stroke="#d42320" stroke-width="1.51"/><path d="M871,-99L802,9L966,-85Z" fill="#c41c1d" stroke="#c41c1d" stroke-width="1.51"/><path d="M920,121L824,243L975,237Z" fill="#eb533c" stroke="#eb533c" stroke-width="1.51"/><path d="M806,144L824,243L920,121Z" fill="#e74834" stroke="#e74834" stroke-width="1.51"/><path d="M802,9L806,144L920,121Z" fill="#e13027" stroke="#e13027" stroke-width="1.51"/><path d="M802,9L752,90L806,144Z" fill="#dd2b25" stroke="#dd2b25" stroke-width="1.51"/><path d="M782,-142L802,9L871,-99Z" fill="#bd181b" stroke="#bd181b" stroke-width="1.51"/><path d="M782,-142L740,-5L802,9Z" fill="#c3181b" stroke="#c3181b" stroke-width="1.51"/><path d="M806,144L794,251L824,243Z" fill="#e7533c" stroke="#e7533c" stroke-width="1.51"/><path d="M661,-127L740,-5L782,-142Z" fill="#b61319" stroke="#b61319" stroke-width="1.51"/><path d="M634,167L540,228L794,251Z" fill="#e1513b" stroke="#e1513b" stroke-width="1.51"/><path d="M654,139L634,167L794,251Z" fill="#e24934" stroke="#e24934" stroke-width="1.51"/><path d="M740,-5L752,90L802,9Z" fill="#d22120" stroke="#d22120" stroke-width="1.51"/><path d="M654,139L794,251L806,144Z" fill="#e44833" stroke="#e44833" stroke-width="1.51"/><path d="M752,90L654,139L806,144Z" fill="#e0382a" stroke="#e0382a" stroke-width="1.51"/><path d="M740,-5L656,39L752,90Z" fill="#d22220" stroke="#d22220" stroke-width="1.51"/><path d="M656,39L654,139L752,90Z" fill="#db2b24" stroke="#db2b24" stroke-width="1.51"/><path d="M661,-127L656,39L740,-5Z" fill="#c2161b" stroke="#c2161b" stroke-width="1.51"/><path d="M292,175L173,230L540,228Z" fill="#d44c36" stroke="#d44c36" stroke-width="1.51"/><path d="M546,18L634,167L654,139Z" fill="#d93126" stroke="#d93126" stroke-width="1.51"/><path d="M546,18L654,139L656,39Z" fill="#d32621" stroke="#d32621" stroke-width="1.51"/><path d="M546,18L656,39L661,-127Z" fill="#c1161b" stroke="#c1161b" stroke-width="1.51"/><path d="M516,-158L546,18L661,-127Z" fill="#b11217" stroke="#b11217" stroke-width="1.51"/><path d="M363,165L292,175L540,228Z" fill="#d64733" stroke="#d64733" stroke-width="1.51"/><path d="M546,18L472,73L634,167Z" fill="#d52922" stroke="#d52922" stroke-width="1.51"/><path d="M472,73L540,228L634,167Z" fill="#da3f2e" stroke="#da3f2e" stroke-width="1.51"/><path d="M362,-120L394,27L516,-158Z" fill="#ac1016" stroke="#ac1016" stroke-width="1.51"/><path d="M472,73L363,165L540,228Z" fill="#d63e2d" stroke="#d63e2d" stroke-width="1.51"/><path d="M516,-158L394,27L546,18Z" fill="#b81419" stroke="#b81419" stroke-width="1.51"/><path d="M394,27L472,73L546,18Z" fill="#c81f1d" stroke="#c81f1d" stroke-width="1.51"/><path d="M306,-166L362,-120L516,-158Z" fill="#940914" stroke="#940914" stroke-width="1.51"/><path d="M394,27L422,64L472,73Z" fill="#c9211f" stroke="#c9211f" stroke-width="1.51"/><path d="M422,64L363,165L472,73Z" fill="#d12c24" stroke="#d12c24" stroke-width="1.51"/><path d="M362,-120L280,10L394,27Z" fill="#b41318" stroke="#b41318" stroke-width="1.51"/><path d="M394,27L346,63L422,64Z" fill="#c7201e" stroke="#c7201e" stroke-width="1.51"/><path d="M346,63L363,165L422,64Z" fill="#cf2a23" stroke="#cf2a23" stroke-width="1.51"/><path d="M280,10L346,63L394,27Z" fill="#c11c1c" stroke="#c11c1c" stroke-width="1.51"/><path d="M306,-166L280,10L362,-120Z" fill="#a50f16" stroke="#a50f16" stroke-width="1.51"/><path d="M346,63L292,175L363,165Z" fill="#cf3628" stroke="#cf3628" stroke-width="1.51"/><path d="M205,144L292,175L346,63Z" fill="#cd3326" stroke="#cd3326" stroke-width="1.51"/><path d="M280,10L205,144L346,63Z" fill="#c7231f" stroke="#c7231f" stroke-width="1.51"/><path d="M159,-157L137,-30L280,10Z" fill="#a60f16" stroke="#a60f16" stroke-width="1.51"/><path d="M159,-157L280,10L306,-166Z" fill="#9d0d15" stroke="#9d0d15" stroke-width="1.51"/><path d="M115,48L205,144L280,10Z" fill="#c0211e" stroke="#c0211e" stroke-width="1.51"/><path d="M205,144L173,230L292,175Z" fill="#cd422f" stroke="#cd422f" stroke-width="1.51"/><path d="M117,-96L137,-30L159,-157Z" fill="#990c14" stroke="#990c14" stroke-width="1.51"/><path d="M137,-30L115,48L280,10Z" fill="#b31419" stroke="#b31419" stroke-width="1.51"/><path d="M111,155L173,230L205,144Z" fill="#c83f2d" stroke="#c83f2d" stroke-width="1.51"/><path d="M115,48L111,155L205,144Z" fill="#c32d23" stroke="#c32d23" stroke-width="1.51"/><path d="M105,35L115,48L137,-30Z" fill="#b11519" stroke="#b11519" stroke-width="1.51"/><path d="M111,155L-68,253L173,230Z" fill="#c24734" stroke="#c24734" stroke-width="1.51"/><path d="M15,-144L117,-96L159,-157Z" fill="#890712" stroke="#890712" stroke-width="1.51"/><path d="M117,-96L-11,22L137,-30Z" fill="#a30d16" stroke="#a30d16" stroke-width="1.51"/><path d="M-11,22L105,35L137,-30Z" fill="#ac1218" stroke="#ac1218" stroke-width="1.51"/><path d="M-87,196L-68,253L111,155Z" fill="#bc4231" stroke="#bc4231" stroke-width="1.51"/><path d="M-79,151L-87,196L111,155Z" fill="#ba392b" stroke="#ba392b" stroke-width="1.51"/><path d="M-11,22L-79,151L111,155Z" fill="#b82921" stroke="#b82921" stroke-width="1.51"/><path d="M-11,22L111,155L115,48Z" fill="#b8201e" stroke="#b8201e" stroke-width="1.51"/><path d="M105,35L-11,22L115,48Z" fill="#b1181a" stroke="#b1181a" stroke-width="1.51"/><path d="M15,-144L-11,22L117,-96Z" fill="#980b14" stroke="#980b14" stroke-width="1.51"/><path d="M-121,-68L-108,-15L-11,22Z" fill="#9b0b16" stroke="#9b0b16" stroke-width="1.51"/><path d="M-121,-68L-11,22L15,-144Z" fill="#950914" stroke="#950914" stroke-width="1.51"/><path d="M-108,-15L-79,151L-11,22Z" fill="#ab191b" stroke="#ab191b" stroke-width="1.51"/><path d="M-108,-15L-195,149L-79,151Z" fill="#ae211e" stroke="#ae211e" stroke-width="1.51"/><path d="M-87,196L-195,149L-68,253Z" fill="#b53f30" stroke="#b53f30" stroke-width="1.51"/><path d="M-195,149L-87,196L-79,151Z" fill="#b33629" stroke="#b33629" stroke-width="1.51"/><path d="M-121,-68L-195,149L-108,-15Z" fill="#9f1118" stroke="#9f1118" stroke-width="1.51"/></svg>